<?xml version="1.0" encoding="utf-8"?>
<!-- Generator: Adobe Illustrator 25.2.0, SVG Export Plug-In . SVG Version: 6.00 Build 0)  -->
<svg version="1.1" id="Capa_1" xmlns="http://www.w3.org/2000/svg" xmlns:xlink="http://www.w3.org/1999/xlink" x="0px" y="0px"
	 viewBox="0 0 512 512" style="enable-background:new 0 0 512 512;" xml:space="preserve">
<g>
	<path d="M388.1,118.6c-69.8,0-139.5,0-209.3,0c-22.6,0-45.2,0-67.9,0c-4.7,0-7.1,3.3-6.8,9.6c0.9,16.6,1.8,33.2,2.8,49.8
		c2.1,36,4.2,71.9,6.2,107.9c1.5,27.5,2.9,55,4.5,82.5c2,36.3,4.2,72.6,6.2,109c0.4,6.9,2,9.3,6.7,9.3c1.2,0,2.3,0,3.5,0v0h159
		c5.7,0,11.5,0,17.2,0c0.2,0,0.3,0,0.4,0h50v0c2.8,0,5.7,0,8.5,0c5.3,0,6.8-1.8,7.3-9.6c1.1-18.7,2.2-37.4,3.2-56
		c1.5-27.3,2.9-54.7,4.5-82c2-36,4.1-71.9,6.2-107.9c1.9-33.4,3.7-66.8,5.6-100.2C396.5,121.4,394.8,118.6,388.1,118.6z
		 M213.7,422.3c-1.6,5.1-5.7,8.1-9.5,7c-4-1.1-6.9-5.7-7.2-11.9c-1.2-27.9-2.3-55.8-3.4-83.7c-1.9-47.2-3.8-94.4-5.7-141.6
		c0-0.6-0.1-1.2-0.1-1.8c-0.3-8.1,3-14,8-14.5c5.3-0.5,9.3,4.5,9.7,12.8c1.3,29.7,2.4,59.4,3.6,89.2c0.3,8.4,0.7,16.8,1,25.3
		c1.4,36.7,2.9,73.5,4.3,110.2C214.5,416.4,214.7,419.5,213.7,422.3z M312.3,191.3c-1.3,32.5-2.5,65.1-3.8,97.6
		c-1.6,39.7-3.2,79.5-4.8,119.2c-0.2,3.6-0.2,7.3-0.6,10.8c-0.8,6.9-4.7,11.2-9.3,10.7c-4.6-0.5-8.1-5.8-8-12.7
		c0.1-8.7,0.5-17.3,0.9-25.9c1.3-29.6,2.5-59.1,3.6-88.6c1.5-37.9,3.1-75.9,4.7-113.8c0.2-6.2,2.2-10.5,6.3-12.2
		c3.9-1.6,7.4,0.2,9.8,5C312.5,184.4,312.5,187.8,312.3,191.3z"/>
	<path d="M398.7,106.7L108.5,50.5c-5.6-1.1-9.3-6.5-8.2-12.1l0.9-4.8c1.1-5.6,6.5-9.3,12.1-8.2l290.2,56.3c5.6,1.1,9.3,6.5,8.2,12.1
		l-0.9,4.8C409.7,104.1,404.2,107.8,398.7,106.7z"/>
</g>
</svg>
