<?xml version="1.0" encoding="utf-8"?>
<!-- Generator: Adobe Illustrator 25.2.1, SVG Export Plug-In . SVG Version: 6.00 Build 0)  -->
<svg version="1.1" id="Capa_1" xmlns="http://www.w3.org/2000/svg" xmlns:xlink="http://www.w3.org/1999/xlink" x="0px" y="0px"
	 viewBox="0 0 512 512" style="enable-background:new 0 0 512 512;" xml:space="preserve">
<style type="text/css">
	.st0{fill:#212121;}
</style>
<g>
	<path class="st0" d="M256.1,0c23.9,0,47.9,0,71.8,0c13.4,0,19,5.6,19.2,18.9c0.1,10.9,0.3,21.9-0.1,32.8c-0.2,5.4,1.7,6.3,6.5,6.3
		c46.8-0.2,93.7-0.2,140.5-0.1c13.6,0,21.8,11.9,16.1,23.1c-3.5,6.9-9.6,9-16.9,9c-13.5,0-27.1,0.2-40.6-0.1
		c-5.1-0.1-6.6,1.4-6.8,6.4c-1.7,32.5-3.6,64.9-5.4,97.4c-4,71.4-8,142.9-12,214.3c-1.6,28.8-3.2,57.7-4.9,86.5
		c-0.7,11.9-6.5,17.5-18.4,17.5c-99.4,0.1-198.8,0.1-298.2,0c-11.7,0-17.5-6-18.2-17.7c-5.8-101.6-11.5-203.1-17.3-304.7
		c-1.8-30.9-3.9-61.8-5.3-92.7c-0.3-6.1-2.4-7.1-7.8-7c-13,0.4-26,0.2-39,0.1C7.4,89.8,0.1,83.7,0,74.1c-0.1-9.8,7.6-16.2,19.6-16.2
		c45.5,0,91.1-0.2,136.6,0.2c7.4,0.1,9-2.2,8.6-9c-0.5-10.1-0.3-20.3-0.1-30.4c0.2-12.8,6-18.6,18.7-18.6C207.7,0,231.9,0,256.1,0z
		 M108.6,283.1C108.6,283.1,108.7,283.1,108.6,283.1c1.3,22.1,2.5,44.2,3.8,66.3c2.4,41.6,4.9,83.1,7.1,124.7
		c0.2,4.1,1.1,5.7,5.7,5.7c87.2-0.1,174.4-0.1,261.6,0c4.4,0,5.8-1.4,5.9-5.6c0.6-13.8,1.5-27.5,2.2-41.3
		c2.8-51.2,5.7-102.4,8.5-153.6c3.4-60.8,6.7-121.6,10.4-182.4c0.4-6.3-1.7-7.1-7.2-7.1c-100.5,0.2-201,0.2-301.4,0
		c-6.5,0-7.5,1.9-7.2,7.8C101.7,159.5,105.1,221.3,108.6,283.1z M255.2,57.9c13.8,0,27.6,0,41.3,0c18.8,0,18.6,0,18.9-18.8
		c0.1-5.9-1.5-7.4-7.3-7.3c-30.4,0.3-60.8,0.1-91.2,0.1c-20.8,0-20.6,0-20.3,20.5c0.1,4.5,1.3,5.6,5.7,5.5
		C219.9,57.7,237.5,57.9,255.2,57.9z"/>
	<path class="st0" d="M299.4,285.3c2.8-49.1,5.7-98.2,8.5-147.3c0.4-8,4.1-13.6,11.5-15.8c7.1-2.1,13.4,0.2,17.8,6.5
		c2.7,3.9,2.6,8.3,2.3,12.8c-2.3,42.1-4.6,84.2-7,126.3c-2.9,51.4-5.9,102.9-8.8,154.3c-0.3,4.7-0.3,9.4-1.1,14
		c-1.5,8.9-8.6,14.5-17,13.8c-8.3-0.7-14.7-7.5-14.5-16.4c0.2-11.2,1-22.4,1.7-33.5C295.1,361.7,297.3,323.5,299.4,285.3
		C299.5,285.3,299.5,285.3,299.4,285.3z"/>
	<path class="st0" d="M212.7,286.4c2.6,47.5,5.3,95.1,7.9,142.6c0.2,3.9,0.5,7.8-1.2,11.5c-3,6.6-10.4,10.5-17.3,9.1
		c-7.3-1.4-12.6-7.4-13.1-15.4c-2.2-36.1-4.2-72.2-6.2-108.3c-3.5-61.1-6.9-122.1-10.4-183.2c0-0.8-0.1-1.6-0.2-2.3
		c-0.5-10.5,5.4-18.1,14.5-18.7c9.7-0.7,17,5.8,17.6,16.6c2.3,38.4,4.4,76.9,6.5,115.4C211.4,264.6,212,275.5,212.7,286.4
		C212.7,286.4,212.7,286.4,212.7,286.4z"/>
</g>
</svg>
