<?xml version="1.0" encoding="utf-8"?>
<!-- Generator: Adobe Illustrator 25.2.0, SVG Export Plug-In . SVG Version: 6.00 Build 0)  -->
<svg version="1.1" id="Capa_1" xmlns="http://www.w3.org/2000/svg" xmlns:xlink="http://www.w3.org/1999/xlink" x="0px" y="0px"
	 viewBox="0 0 512 512" style="enable-background:new 0 0 512 512;" xml:space="preserve">
<style type="text/css">
	.st0{stroke:#FFFFFF;stroke-width:18;stroke-miterlimit:10;}
</style>
<g>
	<path d="M335.4,152.1c5.4,23.8,7.8,47.6,7.9,71.7c0,2.4,0,4.9,0.4,7.3c1.2,7.8,7.2,12.6,14.7,12c7.1-0.6,12.2-6.5,12.3-14.1
		c0.3-25.8-2.2-51.3-7.3-76.9c1.2-0.1,2.2-0.3,3.3-0.4c14.7,0,29.4-0.1,44.1,0c6.1,0,8.1,2.1,8.6,8.2c2.7,32,5.4,64.1,8.1,96.1
		c2,24.3,3.8,48.5,5.8,72.8c2.6,31.7,5.3,63.5,8,95.2c1.2,14.6,2.4,29.3,3.6,44c0.4,5.5-2.7,8.5-8.8,8.5c-29.3,0-58.6,0-87.8,0
		c-90.3,0-180.6,0-270.8,0c-8.7,0-10.9-2.5-10.1-11.1c2.5-29.5,4.8-58.9,7.3-88.4c2.6-31.7,5.4-63.5,8-95.2
		c2-24.1,3.8-48.2,5.8-72.4c1.3-16.5,2.7-33,4.2-49.4c0.6-6.8,2.6-8.4,9.4-8.4c13.3,0,26.7,0,40,0.1c1.3,0,2.7,0.1,4.5,0.2
		c-1.1,6.9-2.6,13.4-3.2,20c-1.6,18.8-3.1,37.5-4.1,56.3c-0.5,8.8,6,14.9,14.1,14.8c7.9-0.2,13.2-6.2,13.3-15
		c0.2-24.4,2.2-48.6,7.3-72.5c0.6-2.6,1.3-3.9,4.4-3.9c51.7,0.1,103.3,0.1,155,0.1C333.7,151.8,334.3,151.9,335.4,152.1z"/>
	<path class="st0" d="M364.1,214c0,4.8,0.1,9.5,0,14.3c-0.1,5.1-3,8.5-7.1,8.4c-4.1-0.1-6.7-3.1-6.8-8.2
		c-0.2-21.2-1.5-42.2-5.3-63.1c-5.6-30.6-14.7-59.8-34.1-84.7c-11.3-14.5-25-25.7-43.4-29.8c-21.8-4.9-40.1,2.7-56.1,17
		c-17.9,16-28.5,36.6-36.2,58.8c-8.3,23.9-12.5,48.5-14,73.7c-0.6,9.6-0.7,19.3-1.1,28.9c-0.2,4.4-3.4,7.5-7.2,7.4
		c-3.9-0.2-6.6-2.9-6.7-7.3c0-43.4,5.3-85.9,23.3-125.9c9.1-20.1,21.2-38,39-51.5c31.6-23.9,70-21.8,99.5,5.1
		c20.8,19,33,43,41.7,69.3C358.8,154.8,362.7,184.2,364.1,214z"/>
	<path d="M364.1,214c0,4.8,0.1,9.5,0,14.3c-0.1,5.1-3,8.5-7.1,8.4c-4.1-0.1-6.7-3.1-6.8-8.2c-0.2-21.2-1.5-42.2-5.3-63.1
		c-5.6-30.6-14.7-59.8-34.1-84.7c-11.3-14.5-25-25.7-43.4-29.8c-21.8-4.9-40.1,2.7-56.1,17c-17.9,16-28.5,36.6-36.2,58.8
		c-8.3,23.9-12.5,48.5-14,73.7c-0.6,9.6-0.7,19.3-1.1,28.9c-0.2,4.4-3.4,7.5-7.2,7.4c-3.9-0.2-6.6-2.9-6.7-7.3
		c0-43.4,5.3-85.9,23.3-125.9c9.1-20.1,21.2-38,39-51.5c31.6-23.9,70-21.8,99.5,5.1c20.8,19,33,43,41.7,69.3
		C358.8,154.8,362.7,184.2,364.1,214z"/>
</g>
</svg>
